<?xml version="1.0" encoding="iso-8859-1"?>
<!-- Generator: Adobe Illustrator 15.1.0, SVG Export Plug-In . SVG Version: 6.00 Build 0)  -->
<!DOCTYPE svg PUBLIC "-//W3C//DTD SVG 1.1//EN" "http://www.w3.org/Graphics/SVG/1.1/DTD/svg11.dtd">
<svg version="1.1" id="Layer_1" xmlns="http://www.w3.org/2000/svg" xmlns:xlink="http://www.w3.org/1999/xlink" x="0px" y="0px"
	 width="250px" height="230px" viewBox="0 0 250 230" style="enable-background:new 0 0 250 230;" xml:space="preserve">
<g id="ARC_6_">
	<g id="XMLID_6_">
		<path style="fill:#1F3264;" d="M181.998,91.568c27.869,18.677,35.35,56.419,16.688,84.288
			c-18.678,27.89-56.394,35.363-84.283,16.688c-3.094-2.071-3.935-6.252-1.85-9.341c2.064-3.092,6.256-3.931,9.342-1.862
			c21.691,14.521,51.058,8.719,65.588-12.98c14.534-21.688,8.725-51.062-12.999-65.588c-2.734-1.849-5.676-3.378-8.751-4.607
			c-3.454-1.392-7.382,0.295-8.748,3.745c-1.393,3.474,0.284,7.387,3.764,8.771c12.827,5.116,21.25,17.549,21.25,31.381
			c0,18.66-15.129,33.794-33.805,33.794c-18.665,0-33.791-15.134-33.791-33.794V85.775c-1.19-11.146-11.206-19.23-22.368-18.04
			c-11.151,1.208-19.232,11.204-18.043,22.368c0.802,7.497,5.683,13.928,12.666,16.706c10.377,4.146,15.426,15.896,11.295,26.281
			c-4.151,10.364-15.925,15.426-26.284,11.273c-2.243-0.893-4.455-1.938-6.574-3.107C35.628,125.193,24.791,88.28,40.857,58.836
			c16.086-29.464,53-40.299,82.441-24.216c2.903,1.807,3.975,5.503,2.521,8.604c-1.572,3.367-5.609,4.809-8.978,3.22
			c-22.915-12.499-51.647-4.073-64.144,18.841c-12.521,22.92-4.073,51.649,18.842,64.154c1.66,0.909,3.363,1.712,5.119,2.409
			c3.474,1.393,7.385-0.294,8.768-3.766c1.377-3.452-0.302-7.366-3.768-8.75c-11.857-4.74-20.041-15.736-21.139-28.457
			c-1.605-18.61,12.154-34.98,30.738-36.604c18.605-1.61,34.979,12.147,36.606,30.736v57.097
			c0.018,11.218,9.139,20.299,20.367,20.285c11.215-0.018,20.3-9.142,20.262-20.36c0-8.314-5.084-15.757-12.779-18.804l0.023-0.039
			c-10.364-4.135-15.426-15.897-11.278-26.268c4.151-10.377,15.901-15.421,26.28-11.272
			C174.684,87.219,178.451,89.21,181.998,91.568z"/>
	</g>
</g>
</svg>
