<?xml version="1.0" encoding="iso-8859-1"?>
<!-- Generator: Adobe Illustrator 15.1.0, SVG Export Plug-In . SVG Version: 6.00 Build 0)  -->
<!DOCTYPE svg PUBLIC "-//W3C//DTD SVG 1.1//EN" "http://www.w3.org/Graphics/SVG/1.1/DTD/svg11.dtd">
<svg version="1.1" id="Layer_1" xmlns="http://www.w3.org/2000/svg" xmlns:xlink="http://www.w3.org/1999/xlink" x="0px" y="0px"
	 width="350px" height="200px" viewBox="0 0 350 200" style="enable-background:new 0 0 350 200;" xml:space="preserve">
<g>
	<g id="ARC_4_">
		<g id="XMLID_5_">
			<linearGradient id="SVGID_1_" gradientUnits="userSpaceOnUse" x1="38.9414" y1="82.4053" x2="113.1908" y2="123.2424">
				<stop  offset="0" style="stop-color:#09D9D6"/>
				<stop  offset="1" style="stop-color:#FF2F64"/>
			</linearGradient>
			<path style="fill:url(#SVGID_1_);" d="M120.559,84.279c21.076,14.125,26.733,42.668,12.621,63.745
				c-14.125,21.091-42.649,26.744-63.741,12.62c-2.34-1.565-2.976-4.728-1.398-7.063c1.562-2.338,4.73-2.973,7.064-1.409
				c16.405,10.983,38.614,6.594,49.602-9.815c10.992-16.403,6.599-38.617-9.83-49.602c-2.068-1.399-4.293-2.556-6.618-3.484
				c-2.612-1.053-5.583,0.222-6.616,2.832c-1.053,2.627,0.215,5.585,2.847,6.633c9.7,3.869,16.07,13.271,16.07,23.732
				c0,14.111-11.441,25.557-25.565,25.557c-14.115,0-25.555-11.446-25.555-25.557V79.898c-0.9-8.43-8.475-14.543-16.916-13.643
				c-8.434,0.913-14.545,8.473-13.646,16.916c0.607,5.67,4.298,10.533,9.579,12.634c7.849,3.136,11.666,12.022,8.542,19.876
				c-3.14,7.838-12.044,11.666-19.878,8.525c-1.696-0.675-3.369-1.466-4.972-2.349C9.865,109.708,1.669,81.792,13.819,59.524
				c12.166-22.282,40.082-30.477,62.348-18.313c2.195,1.366,3.006,4.161,1.906,6.507c-1.188,2.547-4.242,3.636-6.788,2.436
				c-17.331-9.453-39.06-3.082-48.51,14.248c-9.469,17.333-3.08,39.061,14.25,48.517c1.255,0.688,2.543,1.296,3.872,1.823
				c2.627,1.052,5.584-0.222,6.63-2.848c1.041-2.612-0.228-5.571-2.849-6.617c-8.968-3.585-15.156-11.901-15.987-21.521
				c-1.214-14.075,9.191-26.455,23.247-27.683c14.07-1.218,26.453,9.186,27.684,23.245v43.18
				c0.013,8.484,6.912,15.353,15.402,15.341c8.481-0.013,15.352-6.914,15.324-15.398c0-6.288-3.845-11.916-9.665-14.221l0.018-0.029
				c-7.838-3.127-11.666-12.022-8.53-19.864c3.14-7.848,12.026-11.662,19.875-8.526C115.027,80.99,117.876,82.495,120.559,84.279z"
				/>
		</g>
	</g>
	<g>
		<g>
			<path style="fill:#1F3264;" d="M199.882,110.007v24.095c0.069,1.55,0.475,2.694,1.215,3.437c0.739,0.739,1.882,1.213,3.434,1.425
				l-0.315,8.771c-6.061,0-10.744-1.3-14.055-3.908c-5.64,2.608-11.309,3.908-17.016,3.908c-10.496,0-15.746-5.603-15.746-16.803
				c0-5.35,1.427-9.227,4.281-11.625c2.854-2.395,7.24-3.836,13.157-4.332l13.632-1.163v-3.804c0-2.817-0.617-4.791-1.848-5.918
				c-1.235-1.122-3.05-1.688-5.443-1.688c-4.509,0-10.146,0.281-16.911,0.843l-3.379,0.209l-0.424-8.137
				c7.679-1.828,14.743-2.747,21.189-2.747s11.096,1.392,13.95,4.175C198.455,99.53,199.882,103.95,199.882,110.007z
				 M176.212,123.11c-4.864,0.424-7.293,3.066-7.293,7.927c0,4.861,2.146,7.292,6.444,7.292c3.523,0,7.255-0.566,11.205-1.693
				l1.9-0.634v-14.054L176.212,123.11z"/>
			<path style="fill:#1F3264;" d="M238.979,92.571c7.254,0,12.486,2.027,15.695,6.077c3.202,4.054,4.806,11.22,4.806,21.505
				c0,10.287-1.901,17.456-5.705,21.505c-3.806,4.054-10.5,6.077-20.081,6.077c-3.312,0-8.559-0.315-15.742-0.951l-3.594-0.315
				V71.753h11.41v23.988C230.63,93.628,235.031,92.571,238.979,92.571z M233.693,137.486c5.637,0,9.391-1.325,11.255-3.965
				c1.867-2.642,2.802-7.131,2.802-13.473c0-6.342-0.794-10.796-2.379-13.369c-1.585-2.571-4.177-3.857-7.765-3.857
				c-3.385,0-6.763,0.527-10.146,1.586l-1.693,0.528v32.125C229.642,137.343,232.287,137.486,233.693,137.486z"/>
			<path style="fill:#1F3264;" d="M271.634,146.572V71.753h11.521v74.819H271.634z"/>
			<path style="fill:#1F3264;" d="M335.354,137.062l2.958-0.315l0.212,8.555c-8.028,1.621-15.147,2.432-21.346,2.432
				c-7.819,0-13.438-2.146-16.854-6.444c-3.419-4.297-5.126-11.166-5.126-20.607c0-18.74,7.643-28.112,22.931-28.112
				c14.794,0,22.193,8.069,22.193,24.2l-0.74,8.246h-32.76c0.07,4.366,1.02,7.572,2.855,9.614c1.826,2.047,5.244,3.065,10.248,3.065
				C324.928,137.695,330.07,137.486,335.354,137.062z M329.014,116.137c0-5.21-0.828-8.86-2.481-10.935
				c-1.657-2.079-4.458-3.121-8.404-3.121c-3.945,0-6.814,1.095-8.612,3.277c-1.796,2.184-2.731,5.778-2.799,10.778H329.014z"/>
		</g>
	</g>
</g>
</svg>
